<?xml version="1.0" encoding="UTF-8" standalone="no"?>
<!-- Created with Inkscape (http://www.inkscape.org/) -->

<svg
   width="12.738429mm"
   height="12.738429mm"
   viewBox="0 0 12.738429 12.738429"
   version="1.1"
   id="svg14846"
   inkscape:version="1.1.1 (3bf5ae0d25, 2021-09-20)"
   sodipodi:docname="bubble.svg"
   xmlns:inkscape="http://www.inkscape.org/namespaces/inkscape"
   xmlns:sodipodi="http://sodipodi.sourceforge.net/DTD/sodipodi-0.dtd"
   xmlns:xlink="http://www.w3.org/1999/xlink"
   xmlns="http://www.w3.org/2000/svg"
   xmlns:svg="http://www.w3.org/2000/svg">
  <sodipodi:namedview
     id="namedview14848"
     pagecolor="#ffffff"
     bordercolor="#666666"
     borderopacity="1.0"
     inkscape:pageshadow="2"
     inkscape:pageopacity="0.0"
     inkscape:pagecheckerboard="0"
     inkscape:document-units="mm"
     showgrid="false"
     fit-margin-top="0"
     fit-margin-left="0"
     fit-margin-right="0"
     fit-margin-bottom="0"
     inkscape:zoom="8.3856039"
     inkscape:cx="15.800889"
     inkscape:cy="30.945893"
     inkscape:window-width="1920"
     inkscape:window-height="1017"
     inkscape:window-x="-8"
     inkscape:window-y="-8"
     inkscape:window-maximized="1"
     inkscape:current-layer="g10793" />
  <defs
     id="defs14843">
    <clipPath
       clipPathUnits="userSpaceOnUse"
       id="clipPath5891">
      <circle
         style="fill:#999999;fill-opacity:1;stroke:none;stroke-width:1.32292;stroke-linejoin:miter;stroke-miterlimit:4;stroke-dasharray:none"
         id="circle5893"
         cx="11.906251"
         cy="64.823242"
         r="6.3692145" />
    </clipPath>
    <filter
       inkscape:collect="always"
       style="color-interpolation-filters:sRGB"
       id="filter5596"
       x="-0.094414427"
       y="-0.094401761"
       width="1.1888289"
       height="1.1888035">
      <feGaussianBlur
         inkscape:collect="always"
         stdDeviation="0.57241819"
         id="feGaussianBlur5598" />
    </filter>
    <linearGradient
       inkscape:collect="always"
       xlink:href="#linearGradient10484"
       id="linearGradient10486"
       x1="12.36842"
       y1="58.197834"
       x2="6.5786109"
       y2="63.845657"
       gradientUnits="userSpaceOnUse" />
    <linearGradient
       inkscape:collect="always"
       id="linearGradient10484">
      <stop
         style="stop-color:#ffffff;stop-opacity:1;"
         offset="0"
         id="stop10480" />
      <stop
         style="stop-color:#ffffff;stop-opacity:0;"
         offset="1"
         id="stop10482" />
    </linearGradient>
    <inkscape:path-effect
       effect="skeletal"
       id="path-effect9103"
       is_visible="true"
       lpeversion="1"
       pattern="m 4.7440475,51.73825 v 0.724909 H 6.1938638 V 51.73825 Z m 1.5868866,0 v 0.724909 H 7.7807502 V 51.73825 Z m 1.6128206,0 v 0.724909 H 9.3935708 V 51.73825 Z m -3.1997072,0.870624 v 0.724908 h 1.4498163 v -0.724908 z m 1.5868866,0 v 0.724908 h 1.4498161 v -0.724908 z m 1.6128206,0 v 0.724908 h 1.4498161 v -0.724908 z"
       copytype="single_stretched"
       prop_scale="0.47350254"
       scale_y_rel="false"
       spacing="0"
       normal_offset="0"
       tang_offset="0"
       prop_units="false"
       vertical_pattern="false"
       hide_knot="false"
       fuse_tolerance="0" />
    <filter
       inkscape:collect="always"
       style="color-interpolation-filters:sRGB"
       id="filter10656"
       x="-0.446163"
       y="-0.446163"
       width="1.892326"
       height="1.892326">
      <feGaussianBlur
         inkscape:collect="always"
         stdDeviation="0.88276881"
         id="feGaussianBlur10658" />
    </filter>
    <filter
       inkscape:collect="always"
       style="color-interpolation-filters:sRGB"
       id="filter10656-3"
       x="-0.56634938"
       y="-0.56634938"
       width="2.1326988"
       height="2.1326988">
      <feGaussianBlur
         inkscape:collect="always"
         stdDeviation="1.1205671"
         id="feGaussianBlur10658-1" />
    </filter>
  </defs>
  <g
     inkscape:label="Layer 1"
     inkscape:groupmode="layer"
     id="layer1"
     transform="translate(-98.758786,-142.30927)">
    <g
       id="g10793"
       transform="translate(93.22175,83.855243)">
      <path
         style="color:#000000;fill:#ffffff;-inkscape-stroke:none;filter:url(#filter5596)"
         d="m 11.90625,57.546875 c -4.0106082,0 -7.2753906,3.264783 -7.2753906,7.275391 0,4.010608 3.2647824,7.277343 7.2753906,7.277343 4.010608,0 7.275391,-3.266735 7.275391,-7.277343 0,-4.010608 -3.264783,-7.275391 -7.275391,-7.275391 z m 0,1.322266 c 3.295652,0 5.953125,2.657473 5.953125,5.953125 0,3.295651 -2.657473,5.953125 -5.953125,5.953125 -3.2956517,0 -5.953125,-2.657474 -5.953125,-5.953125 0,-3.295652 2.6574733,-5.953125 5.953125,-5.953125 z"
         id="path5225"
         clip-path="url(#clipPath5891)" />
      <path
         inkscape:original-d="m 6.0895536,64.334715 c 0,0 0.1893125,-1.972007 1.5776046,-3.518058 1.3882921,-1.546053 3.5338348,-1.814245 3.5338348,-1.814245"
         inkscape:path-effect="#path-effect9103"
         style="opacity:0.73374;fill:url(#linearGradient10486);fill-opacity:1;stroke:none;stroke-width:1.32292;stroke-linecap:butt;stroke-linejoin:miter;stroke-miterlimit:4;stroke-dasharray:none"
         d="m 5.7499336,64.181965 0.3086412,0.138417 1.0021177,-2.233626 -0.291757,-0.167244 z m 1.1153416,-2.476353 0.2901607,0.169969 0.4833782,-1.077404 C 7.9275202,60.476651 8.259173,60.198109 8.6188383,59.960035 L 8.4155828,59.697831 C 8.030336,59.958023 7.6724294,60.262675 7.3567975,60.614302 Z m 1.8050486,-2.171055 0.1866819,0.276051 c 0.3394832,-0.201802 0.6996912,-0.3702 1.0691936,-0.507119 l 0,0 C 10.218105,59.195622 10.517027,59.106341 10.820842,59.0383 l 10e-7,0 c 0.08918,-0.01998 0.178895,-0.03814 0.269194,-0.05361 0.03382,-0.0075 0.07088,-0.01367 0.106208,-0.01645 0.0017,0.01135 0.0033,0.02277 0.0048,0.03427 l 1.24e-4,9.91e-4 c -0.01574,-0.12593 -0.03184,-0.251181 -0.04829,-0.375754 -0.04657,-0.01297 -0.08848,-0.0061 -0.120744,0.01862 -0.0971,0.01666 -0.192504,0.03595 -0.286259,0.05698 l 0,0 c -0.319449,0.07158 -0.633025,0.165192 -0.9386033,0.27817 l -1e-7,0 C 9.4157189,59.130405 9.0329401,59.314109 8.6703238,59.534557 Z M 6.1206152,64.348205 6.429256,64.486622 7.4110956,62.287617 7.119339,62.120374 Z m 1.0931464,-2.438458 0.2901603,0.169969 0.473597,-1.060704 C 8.2338868,60.733639 8.5340087,60.486454 8.8629503,60.274944 L 8.659695,60.012741 c -0.3545231,0.233628 -0.6808986,0.506922 -0.9641923,0.822397 z m 1.6807693,-2.043649 0.1866816,0.27605 C 9.3929126,59.96274 9.726013,59.812725 10.069083,59.690177 l 0,0 c 0.275484,-0.101728 0.556807,-0.185812 0.841847,-0.249599 0,0 0,0 0,0 0.08369,-0.01871 0.166572,-0.03552 0.2487,-0.04956 0.03569,0.0131 0.06693,0.0078 0.08875,-0.01384 -0.01594,-0.124638 -0.03178,-0.249922 -0.04752,-0.375851 l 1.24e-4,9.91e-4 c 0.0014,0.0115 0.0028,0.02296 0.004,0.03437 -0.03307,0.0059 -0.06915,0.01192 -0.103286,0.01602 -0.08893,0.01523 -0.177501,0.03317 -0.265765,0.05293 l 0,0 c -0.300673,0.06733 -0.59665,0.15574 -0.8858063,0.26258 l -10e-8,0 c -0.3650785,0.134513 -0.7207495,0.299835 -1.0555827,0.497889 z"
         id="path9055"
         sodipodi:nodetypes="csc" />
      <circle
         style="opacity:0.73374;mix-blend-mode:normal;fill:#ffffff;fill-opacity:1;stroke:none;stroke-width:1.32292;stroke-linecap:butt;stroke-linejoin:miter;stroke-miterlimit:4;stroke-dasharray:none;filter:url(#filter10656)"
         id="path10574"
         cx="13.385975"
         cy="63.727337"
         r="2.374295" />
      <circle
         style="opacity:0.73374;mix-blend-mode:normal;fill:#ffffff;fill-opacity:1;stroke:none;stroke-width:4.02221;stroke-linecap:butt;stroke-linejoin:miter;stroke-miterlimit:4;stroke-dasharray:none;filter:url(#filter10656-3)"
         id="path10574-0"
         cx="13.385975"
         cy="63.727337"
         r="2.374295"
         transform="matrix(0.32890369,0,0,0.32890369,9.8036328,42.151915)" />
    </g>
  </g>
</svg>
