<?xml version="1.0" encoding="UTF-8" standalone="no"?>
<!-- Created with Inkscape (http://www.inkscape.org/) -->

<svg
   width="500"
   height="500"
   viewBox="0 0 132.29167 132.29167"
   version="1.1"
   id="svg5"
   inkscape:version="1.1.1 (3bf5ae0d25, 2021-09-20)"
   sodipodi:docname="source.svg"
   xmlns:inkscape="http://www.inkscape.org/namespaces/inkscape"
   xmlns:sodipodi="http://sodipodi.sourceforge.net/DTD/sodipodi-0.dtd"
   xmlns="http://www.w3.org/2000/svg"
   xmlns:svg="http://www.w3.org/2000/svg">
  <sodipodi:namedview
     id="namedview7"
     pagecolor="#ffffff"
     bordercolor="#666666"
     borderopacity="1.0"
     inkscape:pageshadow="2"
     inkscape:pageopacity="0.0"
     inkscape:pagecheckerboard="0"
     inkscape:document-units="px"
     showgrid="false"
     units="px"
     showguides="true"
     inkscape:zoom="1.0482005"
     inkscape:cx="187.46413"
     inkscape:cy="233.2569"
     inkscape:window-width="1920"
     inkscape:window-height="1017"
     inkscape:window-x="-8"
     inkscape:window-y="-8"
     inkscape:window-maximized="1"
     inkscape:current-layer="layer1"
     inkscape:snap-center="false"
     inkscape:snap-object-midpoints="true"
     inkscape:snap-page="false"
     inkscape:guide-bbox="true"
     inkscape:snap-grids="true"
     inkscape:snap-smooth-nodes="true"
     inkscape:snap-bbox="true"
     inkscape:bbox-nodes="true">
    <inkscape:grid
       type="xygrid"
       id="grid824"
       empspacing="5"
       dotted="false"
       spacingx="5.2916668"
       spacingy="5.2916668"
       color="#3f3fff"
       opacity="0.10196078"
       empcolor="#3f3fff"
       empopacity="0.30196078"
       visible="true"
       enabled="false" />
    <inkscape:grid
       type="xygrid"
       id="grid20996"
       spacingx="2.6458334"
       spacingy="2.6458334"
       enabled="true" />
  </sodipodi:namedview>
  <defs
     id="defs2" />
  <g
     inkscape:label="Layer 1"
     inkscape:groupmode="layer"
     id="layer1">
    <path
       id="rect21877"
       style="fill:#6f7c91;fill-opacity:1;stroke-width:1.32292"
       d="m 60.854168,39.33053 v 27.715876 c 0,1.972088 3.073662,4.034125 5.291667,4.034125 2.218005,0 5.291667,-2.062037 5.291667,-4.034125 V 39.33053 Z"
       sodipodi:nodetypes="csascc" />
    <path
       id="path21403"
       style="fill:#0044aa;fill-opacity:1;stroke-width:1.32292"
       d="m 39.953421,18.363302 a 37.041668,27.78125 0 0 0 0,39.288622 37.041668,27.78125 0 0 0 52.384828,0 37.041668,27.78125 0 0 0 0,-39.288622 37.041668,27.78125 0 0 0 -52.384828,0 z m 5.699992,1.468664 a 31.750001,23.812501 0 0 1 40.984843,10e-7 L 66.145835,35.201283 Z M 41.98801,22.695575 62.404062,38.007613 41.98801,53.319652 a 31.750001,23.812501 0 0 1 0,-30.624077 z m 3.741773,33.430406 20.416052,-15.312037 20.416052,15.312037 a 31.750001,23.812501 0 0 1 -40.832104,0 z M 69.887608,38.007613 90.30366,22.695575 a 31.750001,23.812501 0 0 1 0,30.624077 z" />
  </g>
</svg>
